<svg width="40" height="40" viewBox="0 0 40 40" fill="none" xmlns="http://www.w3.org/2000/svg">
<g clip-path="url(#clip0_4_355)">
<path d="M5.99987 4H3.99987C3.26378 4.0007 2.66729 4.59727 2.66651 5.33336V8.88188C2.66464 9.42758 2.99706 9.91875 3.5044 10.1198L5.50471 10.9203C5.66221 10.9833 5.83026 11.0156 5.99987 11.0157C6.73635 11.0155 7.33323 10.4185 7.33323 9.68203V5.33336C7.33245 4.59727 6.73596 4.00078 5.99987 4ZM5.99987 9.68227L3.99987 8.8818V5.33336H5.99987V9.68227Z" fill="#1553C9"/>
<path d="M39.3334 6.66665H36C35.9993 5.93056 35.4027 5.33407 34.6666 5.33329H33.1519C32.969 5.00728 32.6603 4.75665 32.2792 4.65587L29.9223 4.11728C29.683 3.28048 28.9134 2.66767 27.9999 2.66665H24.1557C23.7896 2.25806 23.2582 2.00064 22.6666 2.00001H20.6666C20.5323 2.00017 20.4028 2.02056 20.2805 2.05759L17.4846 0.380244C17.0702 0.131573 16.596 0.000166352 16.1127 1.01022e-05H10.1618C9.45406 -0.00194302 8.775 0.279385 8.27602 0.78126L8.11453 0.942745C7.865 1.19368 7.52539 1.33431 7.17148 1.33337H2.66664C1.19461 1.33501 0.00171875 2.52798 0 4.00001V10.7002C0.000546875 11.7538 0.621016 12.7086 1.58367 13.137L4.74773 14.5433C5.35734 14.8135 5.67297 15.493 5.48633 16.1331C4.57352 19.1177 4.07344 22.2132 4 25.3334V28.1143C4.00047 28.2913 3.93016 28.4612 3.80469 28.5859L2.86289 29.5277C2.86227 29.5284 2.86172 29.5289 2.86109 29.5295L2.58594 29.8047C2.20953 30.1789 1.99852 30.6883 2 31.2191V36.6666C2.00219 38.5067 3.49328 39.9978 5.33336 40H20.263C20.658 40.0004 21.0441 39.8835 21.3724 39.6641L22.4427 38.9506C22.9997 38.5802 23.3341 37.9554 23.3334 37.2865V35.0942C23.334 34.6773 23.2037 34.2706 22.9609 33.9317L21.2715 31.5668C20.2693 30.1666 18.6536 29.3351 16.9316 29.3334H13.3334H12.4199C12.0789 29.333 11.7578 29.1727 11.5525 28.9004C11.3472 28.6281 11.2815 28.2753 11.375 27.9474L13.4216 20.7839C13.6698 19.9264 14.454 19.3355 15.3467 19.3334C16.0754 19.3326 16.6659 18.742 16.6667 18.0134V17.3334C16.6667 17.2299 16.6427 17.1277 16.5964 17.0352C16.586 17.0147 15.6173 15.0342 16.8848 14H18.6667C19.5391 13.9991 20.2803 13.44 20.5538 12.6609C20.5912 12.6641 20.6286 12.6666 20.6667 12.6666H22.6667C23.2584 12.666 23.7898 12.4085 24.1559 12H28C28.9134 11.999 29.683 11.3861 29.9224 10.5493L32.2796 10.0104C32.6605 9.9097 32.9691 9.65923 33.152 9.33329H34.6666C35.4027 9.33259 35.9992 8.73603 36 7.99993H39.3334C39.7016 7.99993 40 7.70142 40 7.33329C40 6.96517 39.7016 6.66665 39.3334 6.66665ZM21.7031 37.8412L20.6324 38.5547C20.5231 38.6279 20.3945 38.6669 20.263 38.6667H5.33328C4.22922 38.6656 3.33445 37.7708 3.33328 36.6667H22V37.2865C22.0002 37.5094 21.8887 37.7177 21.7031 37.8412ZM13.3334 30.6666H16.9316C18.223 30.668 19.4348 31.2914 20.1866 32.3415L21.8757 34.7064C21.9568 34.8194 22.0002 34.955 22.0001 35.0941V35.3334H3.33336V31.2191C3.33289 31.042 3.4032 30.8722 3.52867 30.7474L3.60938 30.6667H12.4199H13.3334V30.6666ZM12.7628 19.2299C12.2145 17.7627 12.1783 16.5732 12.6582 15.6845C13.2859 14.5213 14.679 14.1373 15.2024 14.0313C14.6445 15.2318 14.9593 16.6535 15.3359 17.4888L15.3447 17.9999C14.3205 18.0034 13.3824 18.4718 12.7628 19.2299ZM19.3334 12C19.3329 12.368 19.0347 12.6662 18.6667 12.6666H16.6667H15.3334C15.3088 12.6666 15.2842 12.668 15.2598 12.6709C15.1521 12.6826 12.6075 12.9876 11.4909 15.04C10.6798 16.5307 10.857 18.4861 12.0154 20.8524L10.0928 27.5813C9.92492 28.1704 9.98805 28.7954 10.2587 29.3333H4.91898C5.18703 28.986 5.33461 28.5577 5.33336 28.1142V25.3333C5.40641 22.3418 5.88781 19.3744 6.76437 16.5133C7.1407 15.2312 6.51023 13.8684 5.28945 13.3252L2.12539 11.9186C1.64398 11.7045 1.33367 11.227 1.33336 10.7002V4.00001C1.33406 3.26392 1.93062 2.66743 2.66672 2.66665H7.17156C7.8793 2.6686 8.55836 2.38728 9.05734 1.8854L9.21875 1.72399C9.46828 1.47306 9.80789 1.33243 10.1618 1.33337H16.1127C16.3543 1.33345 16.5913 1.39915 16.7985 1.52345L19.3616 3.0611C19.3433 3.14899 19.3334 3.24001 19.3333 3.33329V10V11.3334V12H19.3334ZM22.6666 11.3334H20.6666V10H21.3333C21.7015 10 21.9999 9.7015 21.9999 9.33337C21.9999 8.96524 21.7014 8.66673 21.3333 8.66673H20.6666V6.00001H21.3333C21.7015 6.00001 21.9999 5.70157 21.9999 5.33337C21.9999 4.96517 21.7014 4.66673 21.3333 4.66673H20.6666V3.33337H22.6666C23.0346 3.33384 23.3328 3.63204 23.3333 4.00001V10.6667C23.3329 11.0347 23.0347 11.3329 22.6666 11.3334ZM28 10.6667H24.6666V6.66665H26.6666C27.0348 6.66665 27.3333 6.36821 27.3333 6.00001C27.3333 5.63181 27.0348 5.33337 26.6666 5.33337H24.6666V4.00001H28C28.368 4.00048 28.6662 4.29868 28.6666 4.66665V10C28.6662 10.368 28.368 10.6662 28 10.6667ZM30 9.16376V5.50196L31.9655 5.94923C31.9902 5.97798 32.0025 6.01524 32 6.05306V8.6136C31.998 8.64649 31.9922 8.67907 31.9824 8.71064L30 9.16376ZM33.3334 8.00001V6.66665H34.6667L34.6672 7.32376C34.6671 7.32696 34.6667 7.33009 34.6667 7.33329C34.6667 7.33657 34.6672 7.33978 34.6672 7.34313L34.6677 8.00001H33.3334Z" fill="black"/>
<path d="M16.6668 4H10.0001C9.63193 4 9.3335 4.29844 9.3335 4.66664C9.3335 5.03485 9.63193 5.33328 10.0001 5.33328H16.6668C17.035 5.33328 17.3334 5.03485 17.3334 4.66664C17.3334 4.29844 17.035 4 16.6668 4Z" fill="#1553C9"/>
<path d="M16.6668 6.66699H10.0001C9.63193 6.66699 9.3335 6.96551 9.3335 7.33363C9.3335 7.70184 9.63193 8.00027 10.0001 8.00027H16.6668C17.035 8.00027 17.3334 7.70176 17.3334 7.33363C17.3335 6.96551 17.035 6.66699 16.6668 6.66699Z" fill="#1553C9"/>
<path d="M16.6668 9.3335H10.0001C9.63193 9.3335 9.3335 9.63193 9.3335 10.0001C9.3335 10.3683 9.63193 10.6668 10.0001 10.6668H16.6668C17.035 10.6668 17.3334 10.3683 17.3334 10.0001C17.3335 9.63193 17.035 9.3335 16.6668 9.3335Z" fill="#1553C9"/>
</g>
<defs>
<clipPath id="clip0_4_355">
<rect width="40" height="40" fill="white"/>
</clipPath>
</defs>
</svg>
