<svg width="40" height="40" viewBox="0 0 40 40" fill="none" xmlns="http://www.w3.org/2000/svg">
<g clip-path="url(#clip0_4_452)">
<path d="M37.7195 26.3313V24.1806C37.7195 22.175 36.0878 20.5435 34.0824 20.5435H20.1528C19.8286 20.5435 19.5657 20.8063 19.5657 21.1306C19.5657 21.4549 19.8286 21.7177 20.1528 21.7177H34.0824C35.4405 21.7177 36.5453 22.8225 36.5453 24.1806V26.3313C35.2448 26.603 34.2649 27.7582 34.2649 29.1381V31.3185H15.5065V29.1381C15.5065 27.7581 14.5266 26.603 13.2261 26.3313V24.1806C13.2261 22.8225 14.331 21.7177 15.6891 21.7177H17.8045C18.1288 21.7177 18.3916 21.4549 18.3916 21.1306C18.3916 20.8063 18.1288 20.5435 17.8045 20.5435H15.6891C13.6835 20.5435 12.052 22.1751 12.052 24.1806V26.3313C10.7515 26.6029 9.77148 27.7581 9.77148 29.1381V37.4995C9.77148 37.8238 10.0343 38.0867 10.3586 38.0867H28.4666C28.7909 38.0867 29.0537 37.8238 29.0537 37.4995C29.0537 37.1753 28.7909 36.9124 28.4666 36.9124H15.5065V32.4926H34.2649V36.9124H30.8149C30.4906 36.9124 30.2278 37.1753 30.2278 37.4995C30.2278 37.8238 30.4906 38.0867 30.8149 38.0867H39.4128C39.7371 38.0867 39.9999 37.8238 39.9999 37.4995V29.1381C39.9999 27.7581 39.0199 26.603 37.7195 26.3313ZM10.9456 29.1381C10.9456 28.2045 11.7052 27.4449 12.639 27.4449C13.5727 27.4449 14.3323 28.2045 14.3323 29.1381V36.9125H10.9456V29.1381ZM38.8257 36.9125H35.439V29.1381C35.439 28.2045 36.1986 27.4449 37.1324 27.4449C38.066 27.4449 38.8257 28.2045 38.8257 29.1381V36.9125H38.8257Z" fill="#1553C9"/>
<path d="M14.959 16.3539C14.9877 16.6498 15.2456 16.8836 15.5432 16.8836H34.2277C34.547 16.8836 34.8148 16.6159 34.8148 16.2965V2.5002C34.8148 2.18082 34.5471 1.91309 34.2277 1.91309H30.8146C30.4903 1.91309 30.2275 2.1759 30.2275 2.5002C30.2275 2.82449 30.4903 3.0873 30.8146 3.0873H32.8103L31.7235 4.17418H18.0474L16.9605 3.0873H28.4662C28.7905 3.0873 29.0533 2.82449 29.0533 2.5002C29.0533 2.1759 28.7905 1.91309 28.4662 1.91309H15.5432C15.2236 1.91309 14.9561 2.18121 14.9561 2.5002V16.2965C14.9561 16.3154 14.9571 16.335 14.959 16.3539ZM16.9605 15.7095L18.0474 14.6225H31.7234L32.8103 15.7095H16.9605ZM31.3796 13.4483H26.0455L25.0668 12.3613L28.2407 8.83582C28.4294 8.62605 28.765 8.6291 28.953 8.83785L31.3796 11.5072V13.4483ZM24.4655 13.4483H18.3914V13.0201L20.9607 10.1662C21.106 10.0048 21.3654 10.0047 21.5107 10.1662L24.4655 13.4483ZM33.6406 3.91762V14.8791L32.5537 13.7922V5.00449L33.6406 3.91762ZM31.3796 9.76168L29.8238 8.0502C29.1773 7.33215 28.0146 7.33215 27.3681 8.0502L24.2768 11.4838L22.3833 9.38059C22.091 9.05582 21.6727 8.86957 21.2357 8.86957C20.8016 8.86957 20.3785 9.05801 20.088 9.38059L18.3914 11.2652V5.34832H31.3796V9.76168ZM17.2171 5.00449V13.7923L16.1303 14.8792V3.91762L17.2171 5.00449Z" fill="black"/>
<path d="M6.61661 34.797H6.0406V14.4783H7.54857V21.121C7.54857 21.4453 7.81146 21.7081 8.13568 21.7081C8.45989 21.7081 8.72278 21.4453 8.72278 21.121V14.4783H10.3202C10.6912 14.4783 10.9753 14.1223 10.8926 13.7603L8.8338 4.75508C8.77279 4.48813 8.53528 4.29883 8.26146 4.29883H2.64552C2.37169 4.29883 2.13419 4.48813 2.07318 4.75508L0.0144259 13.7603C-0.0683084 14.1223 0.215754 14.4783 0.58677 14.4783H4.86646V34.7969H4.29044C2.8488 34.7969 1.67599 35.9697 1.67599 37.4112V37.4995C1.67599 37.8237 1.93888 38.0866 2.2631 38.0866H8.64396C8.96818 38.0866 9.23107 37.8237 9.23107 37.4995V37.4112C9.23099 35.9698 8.05818 34.797 6.61661 34.797ZM3.11357 5.47305H7.79349L9.5838 13.3041H1.32318L3.11357 5.47305ZM2.93919 36.9124C3.14255 36.3634 3.67146 35.9711 4.29036 35.9711H6.61654C7.23544 35.9711 7.76435 36.3634 7.96771 36.9124H2.93919Z" fill="black"/>
<path d="M24.277 9.30504C25.1912 9.30504 25.9349 8.56129 25.9349 7.64715C25.9349 6.73293 25.1912 5.98926 24.277 5.98926C23.3628 5.98926 22.6191 6.73301 22.6191 7.64715C22.6191 8.56129 23.3628 9.30504 24.277 9.30504ZM24.277 7.1634C24.5437 7.1634 24.7608 7.38043 24.7608 7.64715C24.7608 7.91387 24.5437 8.1309 24.277 8.1309C24.0103 8.1309 23.7933 7.91387 23.7933 7.64715C23.7933 7.38035 24.0103 7.1634 24.277 7.1634Z" fill="black"/>
</g>
<defs>
<clipPath id="clip0_4_452">
<rect width="40" height="40" fill="white"/>
</clipPath>
</defs>
</svg>
