<svg width="40" height="40" viewBox="0 0 40 40" fill="none" xmlns="http://www.w3.org/2000/svg">
<path d="M24.375 33.125H28.75C29.2468 33.1235 29.7229 32.9255 30.0742 32.5742C30.4255 32.2229 30.6235 31.7468 30.625 31.25V26.1625C31.1603 26.0243 31.6347 25.7125 31.9739 25.276C32.3132 24.8395 32.4982 24.3028 32.5 23.75V22.4688C34.207 22.3114 35.7938 21.5225 36.9498 20.2567C38.1058 18.9909 38.7477 17.3392 38.75 15.625V10.625C38.7485 10.1282 38.5505 9.65212 38.1992 9.30081C37.8479 8.9495 37.3718 8.75148 36.875 8.75H36.25V3.75C36.25 3.08696 35.9866 2.45107 35.5178 1.98223C35.0489 1.51339 34.413 1.25 33.75 1.25C33.087 1.25 32.4511 1.51339 31.9822 1.98223C31.5134 2.45107 31.25 3.08696 31.25 3.75V8.75H28.75V3.75C28.75 3.08696 28.4866 2.45107 28.0178 1.98223C27.5489 1.51339 26.913 1.25 26.25 1.25C25.587 1.25 24.9511 1.51339 24.4822 1.98223C24.0134 2.45107 23.75 3.08696 23.75 3.75V8.75H23.125C22.6282 8.75148 22.1521 8.9495 21.8008 9.30081C21.4495 9.65212 21.2515 10.1282 21.25 10.625V15.625C21.2523 17.3392 21.8942 18.9909 23.0502 20.2567C24.2062 21.5225 25.793 22.3114 27.5 22.4688V23.75C27.5018 24.3028 27.6868 24.8395 28.0261 25.276C28.3653 25.7125 28.8397 26.0243 29.375 26.1625V31.25C29.375 31.4158 29.3092 31.5747 29.1919 31.6919C29.0747 31.8092 28.9158 31.875 28.75 31.875H24.375C24.0896 31.8751 23.8079 31.9404 23.5516 32.0661C23.2953 32.1917 23.0712 32.3743 22.8963 32.5998C22.7214 32.8254 22.6004 33.088 22.5425 33.3675C22.4847 33.647 22.4915 33.936 22.5625 34.2125C22.6732 34.6243 22.9186 34.9871 23.2596 35.2432C23.6005 35.4992 24.0174 35.6336 24.4438 35.625H36.875C37.0408 35.625 37.1997 35.6908 37.3169 35.8081C37.4342 35.9253 37.5 36.0842 37.5 36.25V36.875C37.5 37.0408 37.4342 37.1997 37.3169 37.3169C37.1997 37.4342 37.0408 37.5 36.875 37.5H14.375C13.2151 37.4987 12.1031 37.0373 11.2829 36.2171C10.4627 35.3969 10.0013 34.2849 10 33.125V21.25H15.625C16.1218 21.2485 16.5979 21.0505 16.9492 20.6992C17.3005 20.3479 17.4985 19.8718 17.5 19.375V3.125C17.4985 2.62818 17.3005 2.15212 16.9492 1.80081C16.5979 1.4495 16.1218 1.25148 15.625 1.25H3.125C2.62818 1.25148 2.15212 1.4495 1.80081 1.80081C1.4495 2.15212 1.25148 2.62818 1.25 3.125V19.375C1.25148 19.8718 1.4495 20.3479 1.80081 20.6992C2.15212 21.0505 2.62818 21.2485 3.125 21.25H8.75V33.125C8.75231 34.6161 9.34569 36.0455 10.4001 37.0999C11.4545 38.1543 12.8839 38.7477 14.375 38.75H36.875C37.3718 38.7485 37.8479 38.5505 38.1992 38.1992C38.5505 37.8479 38.7485 37.3718 38.75 36.875V36.25C38.7485 35.7532 38.5505 35.2771 38.1992 34.9258C37.8479 34.5745 37.3718 34.3765 36.875 34.375H24.4438C24.2958 34.38 24.1501 34.337 24.0285 34.2526C23.9069 34.1681 23.8158 34.0467 23.7687 33.9062C23.7401 33.7998 23.7413 33.6875 23.7722 33.5817C23.803 33.4759 23.8624 33.3806 23.9438 33.3063C23.9991 33.2478 24.066 33.2014 24.1403 33.1702C24.2145 33.139 24.2945 33.1236 24.375 33.125ZM32.5 3.75C32.5 3.41848 32.6317 3.10054 32.8661 2.86612C33.1005 2.6317 33.4185 2.5 33.75 2.5C34.0815 2.5 34.3995 2.6317 34.6339 2.86612C34.8683 3.10054 35 3.41848 35 3.75V10.625H32.5V3.75ZM25 3.75C25 3.41848 25.1317 3.10054 25.3661 2.86612C25.6005 2.6317 25.9185 2.5 26.25 2.5C26.5815 2.5 26.8995 2.6317 27.1339 2.86612C27.3683 3.10054 27.5 3.41848 27.5 3.75V10.625H25V3.75ZM27.5062 21.2125C26.1305 21.0602 24.8592 20.4061 23.9356 19.3752C23.012 18.3444 22.5008 17.0091 22.5 15.625V10.625C22.5 10.4592 22.5658 10.3003 22.6831 10.1831C22.8003 10.0658 22.9592 10 23.125 10H23.75V11.25C23.75 11.4158 23.8158 11.5747 23.9331 11.6919C24.0503 11.8092 24.2092 11.875 24.375 11.875H28.125C28.2908 11.875 28.4497 11.8092 28.5669 11.6919C28.6842 11.5747 28.75 11.4158 28.75 11.25V10H31.25V11.25C31.25 11.4158 31.3158 11.5747 31.4331 11.6919C31.5503 11.8092 31.7092 11.875 31.875 11.875H35.625C35.7908 11.875 35.9497 11.8092 36.0669 11.6919C36.1842 11.5747 36.25 11.4158 36.25 11.25V10H36.875C37.0408 10 37.1997 10.0658 37.3169 10.1831C37.4342 10.3003 37.5 10.4592 37.5 10.625V15.625C37.4992 17.0091 36.988 18.3444 36.0644 19.3752C35.1408 20.4061 33.8695 21.0602 32.4938 21.2125C32.4938 20.5511 32.231 19.9168 31.7633 19.4492C31.2957 18.9815 30.6614 18.7188 30 18.7188C29.3386 18.7188 28.7043 18.9815 28.2367 19.4492C27.769 19.9168 27.5062 20.5511 27.5062 21.2125ZM28.75 23.75V21.25C28.75 20.9185 28.8817 20.6005 29.1161 20.3661C29.3505 20.1317 29.6685 20 30 20C30.3315 20 30.6495 20.1317 30.8839 20.3661C31.1183 20.6005 31.25 20.9185 31.25 21.25V23.75C31.25 24.0815 31.1183 24.3995 30.8839 24.6339C30.6495 24.8683 30.3315 25 30 25C29.6685 25 29.3505 24.8683 29.1161 24.6339C28.8817 24.3995 28.75 24.0815 28.75 23.75ZM3.125 20C2.95924 20 2.80027 19.9342 2.68306 19.8169C2.56585 19.6997 2.5 19.5408 2.5 19.375V3.125C2.5 2.95924 2.56585 2.80027 2.68306 2.68306C2.80027 2.56585 2.95924 2.5 3.125 2.5H15.625C15.7908 2.5 15.9497 2.56585 16.0669 2.68306C16.1842 2.80027 16.25 2.95924 16.25 3.125V19.375C16.25 19.5408 16.1842 19.6997 16.0669 19.8169C15.9497 19.9342 15.7908 20 15.625 20H3.125Z" fill="black"/>
<path d="M30.625 21.875H29.375V23.125H30.625V21.875Z" fill="black"/>
<path d="M13.6558 9.66865C13.5995 9.57858 13.5212 9.50434 13.4283 9.45294C13.3353 9.40154 13.2308 9.37468 13.1246 9.3749H9.99957V4.9999C9.99913 4.85947 9.9514 4.72329 9.86409 4.61331C9.77679 4.50332 9.65498 4.42594 9.51832 4.39365C9.38207 4.35978 9.23834 4.37356 9.111 4.43268C8.98366 4.4918 8.88038 4.59271 8.81832 4.71865L5.06832 12.2186C5.02038 12.3138 4.99755 12.4196 5.00201 12.5261C5.00647 12.6325 5.03807 12.736 5.0938 12.8268C5.14953 12.9176 5.22755 12.9927 5.32045 13.0449C5.41334 13.097 5.51803 13.1246 5.62457 13.1249H8.74957V17.4999C8.75002 17.6403 8.79775 17.7765 8.88505 17.8865C8.97236 17.9965 9.09416 18.0738 9.23082 18.1061C9.27774 18.1185 9.32605 18.1248 9.37457 18.1249C9.48999 18.1245 9.60306 18.0922 9.70124 18.0316C9.79942 17.9709 9.87889 17.8842 9.93082 17.7811L13.6808 10.2811C13.7292 10.1854 13.7523 10.0788 13.7479 9.97165C13.7436 9.86445 13.7119 9.76015 13.6558 9.66865ZM9.99957 14.8499V12.4999C9.99957 12.3341 9.93373 12.1752 9.81652 12.058C9.69931 11.9407 9.54033 11.8749 9.37457 11.8749H6.63707L8.74957 7.6499V9.9999C8.74957 10.1657 8.81542 10.3246 8.93263 10.4418C9.04984 10.559 9.20881 10.6249 9.37457 10.6249H12.1121L9.99957 14.8499Z" fill="#1553C9"/>
</svg>
