<svg width="40" height="40" viewBox="0 0 40 40" fill="none" xmlns="http://www.w3.org/2000/svg">
<g clip-path="url(#clip0_4_477)">
<path d="M6.66667 22.5203C6.30222 22.1874 5.82693 22.0021 5.33333 22.0003H2C0.89543 22.0003 0 22.8958 0 24.0003V38.0003C0 39.1049 0.89543 40.0003 2 40.0003H5.33333C5.899 39.9986 6.43717 39.7561 6.81333 39.3337H23.5333C24.5116 39.3341 25.4711 39.0651 26.3067 38.5563L38.8 30.951C39.3911 30.5945 39.8074 30.0083 39.9491 29.3327C40.0908 28.6571 39.9453 27.953 39.5473 27.389C39.5337 27.3657 39.5183 27.3434 39.5013 27.3223C38.856 26.4656 37.7366 26.1152 36.718 26.451L34.6667 27.1337V18.667H36.6667C36.909 18.667 37.1323 18.5355 37.2498 18.3235C37.3672 18.1115 37.3604 17.8525 37.232 17.647L33.5587 11.7737C33.4324 11.5712 33.2078 11.4515 32.9693 11.4596C32.7309 11.4677 32.5149 11.6024 32.4027 11.8129C32.2905 12.0235 32.2991 12.2779 32.4253 12.4803L35.4667 17.3337H17.036L11.2 8.00033H21.3333C21.7015 8.00033 22 7.70185 22 7.33366C22 6.96547 21.7015 6.66699 21.3333 6.66699H10C9.77093 6.66857 9.55872 6.78764 9.438 6.98233H9.43467L2.768 17.649C2.64062 17.8544 2.6344 18.1127 2.75175 18.324C2.8691 18.5353 3.09163 18.6665 3.33333 18.667H6.66667V22.5203ZM5.33333 38.667H2C1.63181 38.667 1.33333 38.3685 1.33333 38.0003V24.0003C1.33333 23.6321 1.63181 23.3337 2 23.3337H5.33333C5.70152 23.3337 6 23.6321 6 24.0003V38.0003C6 38.3685 5.70152 38.667 5.33333 38.667ZM37.1333 27.7137C37.5906 27.5625 38.0938 27.7079 38.4 28.0797C38.41 28.0963 38.4207 28.1117 38.432 28.1277C38.6293 28.3886 38.7064 28.7212 38.6439 29.0424C38.5815 29.3635 38.3854 29.643 38.1047 29.811L25.6133 37.4177C24.9866 37.799 24.267 38.0005 23.5333 38.0003H7.33333V24.667H8.53333C9.76341 24.6684 10.9566 25.087 11.918 25.8543C13.1155 26.8097 14.6014 27.3311 16.1333 27.3337H19.62C20.6778 27.3301 21.6362 27.9566 22.0573 28.927C22.3212 29.4966 22.2505 30.1652 21.8733 30.667H17.8133C16.497 30.6678 15.2103 31.0575 14.1147 31.787L13.628 32.1137C13.3224 32.3191 13.2412 32.7334 13.4467 33.039C13.6521 33.3446 14.0664 33.4258 14.372 33.2203L14.8547 32.8963C15.731 32.3125 16.7603 32.0008 17.8133 32.0003H23.74C24.0996 32.0008 24.4568 31.942 24.7973 31.8263L37.1333 27.7137ZM33.3333 27.575L24.3707 30.563C24.1676 30.632 23.9545 30.6672 23.74 30.667H23.3767C23.632 29.9326 23.6013 29.1291 23.2907 28.4163C22.811 27.2971 21.8434 26.4606 20.6667 26.1477V18.667H33.3333V27.575ZM16.6667 18.667H19.3333V26.0003H16.1333C14.9033 25.9989 13.71 25.5804 12.7487 24.813C11.5511 23.8576 10.0653 23.3362 8.53333 23.3337H8V18.1917L12 11.7917L16.1013 18.3537C16.2232 18.5486 16.4368 18.667 16.6667 18.667ZM10 8.59166L11.214 10.5337L6.964 17.3337H4.53333L10 8.59166Z" fill="black"/>
<path d="M29.9941 6.01647e-08C29.6334 -0.000151673 29.3379 0.286715 29.3275 0.647334V0.661334V0.666667C29.3275 0.912 29.2668 6.66667 23.9875 6.66667C23.6193 6.66667 23.3208 6.96514 23.3208 7.33333C23.3208 7.70152 23.6193 8 23.9875 8C29.2461 8 29.3261 13.756 29.3275 14C29.3225 14.3682 29.617 14.6707 29.9851 14.6757C30.3533 14.6806 30.6558 14.3862 30.6608 14.018V14.004V14C30.6608 13.7547 30.7215 8 36.0001 8C36.3683 8 36.6668 7.70152 36.6668 7.33333C36.6668 6.96514 36.3683 6.66667 36.0001 6.66667C30.7421 6.66667 30.6615 0.910667 30.6608 0.666667C30.6608 0.298477 30.3623 6.01647e-08 29.9941 6.01647e-08ZM32.9615 7.33333C31.5963 8.05348 30.5411 9.24737 29.9941 10.6907C29.4472 9.24737 28.392 8.05348 27.0268 7.33333C28.392 6.61319 29.4472 5.4193 29.9941 3.976C30.5411 5.4193 31.5963 6.61319 32.9615 7.33333Z" fill="#1553C9"/>
<path d="M31.3337 21.3335C30.9655 21.3335 30.667 21.632 30.667 22.0002V25.5195L27.123 26.7008C26.7732 26.8172 26.584 27.195 26.7003 27.5448C26.8167 27.8946 27.1945 28.0838 27.5443 27.9675L31.5443 26.6342C31.8172 26.5433 32.001 26.2877 32.0003 26.0002V22.0002C32.0003 21.632 31.7019 21.3335 31.3337 21.3335Z" fill="black"/>
</g>
<defs>
<clipPath id="clip0_4_477">
<rect width="40" height="40" fill="white"/>
</clipPath>
</defs>
</svg>
