<svg width="40" height="40" viewBox="0 0 40 40" fill="none" xmlns="http://www.w3.org/2000/svg">
<g clip-path="url(#clip0_4_389)">
<path d="M37.2002 4.7998C36.0802 4.7998 35.2002 3.9198 35.2002 2.7998C35.2002 1.6798 36.0802 0.799805 37.2002 0.799805C38.3202 0.799805 39.2002 1.6798 39.2002 2.7998C39.2002 3.9198 38.3202 4.7998 37.2002 4.7998ZM37.2002 1.9998C36.8002 1.9998 36.4002 2.3198 36.4002 2.7998C36.4002 3.2798 36.7202 3.5998 37.2002 3.5998C37.6802 3.5998 38.0002 3.2798 38.0002 2.7998C38.0002 2.3198 37.6002 1.9998 37.2002 1.9998Z" fill="#1553C9"/>
<path d="M2.7998 4.7998C1.6798 4.7998 0.799805 3.9198 0.799805 2.7998C0.799805 1.6798 1.6798 0.799805 2.7998 0.799805C3.9198 0.799805 4.7998 1.6798 4.7998 2.7998C4.7998 3.9198 3.9198 4.7998 2.7998 4.7998ZM2.7998 1.9998C2.3998 1.9998 1.9998 2.3198 1.9998 2.7998C1.9998 3.2798 2.3198 3.5998 2.7998 3.5998C3.2798 3.5998 3.5998 3.2798 3.5998 2.7998C3.5998 2.3198 3.1998 1.9998 2.7998 1.9998Z" fill="#1553C9"/>
<path d="M37.2002 39.1997C36.0802 39.1997 35.2002 38.3197 35.2002 37.1997C35.2002 36.0797 36.0802 35.1997 37.2002 35.1997C38.3202 35.1997 39.2002 36.0797 39.2002 37.1997C39.2002 38.3197 38.3202 39.1997 37.2002 39.1997ZM37.2002 36.3997C36.8002 36.3997 36.4002 36.7197 36.4002 37.1997C36.4002 37.6797 36.7202 37.9997 37.2002 37.9997C37.6802 37.9997 38.0002 37.6797 38.0002 37.1997C38.0002 36.7197 37.6002 36.3997 37.2002 36.3997Z" fill="#1553C9"/>
<path d="M2.7998 39.1997C1.6798 39.1997 0.799805 38.3197 0.799805 37.1997C0.799805 36.0797 1.6798 35.1997 2.7998 35.1997C3.9198 35.1997 4.7998 36.0797 4.7998 37.1997C4.7998 38.3197 3.9198 39.1997 2.7998 39.1997ZM2.7998 36.3997C2.3998 36.3997 1.9998 36.7197 1.9998 37.1997C1.9998 37.6797 2.3198 37.9997 2.7998 37.9997C3.2798 37.9997 3.5998 37.6797 3.5998 37.1997C3.5998 36.7197 3.1998 36.3997 2.7998 36.3997Z" fill="#1553C9"/>
<path d="M33.3596 33.9996H6.71959C6.39959 33.9996 6.07959 33.7596 6.07959 33.3596V6.71959C6.07959 6.39959 6.39959 6.07959 6.71959 6.07959H33.3596C33.6796 6.07959 33.9996 6.31959 33.9996 6.71959V33.3596C33.9996 33.6796 33.6796 33.9996 33.3596 33.9996ZM7.27959 32.7996H32.7996V7.27959H7.27959V32.7996Z" fill="black"/>
<path d="M33.2802 7.27961C33.1202 7.27961 32.9602 7.19961 32.8802 7.11961C32.6402 6.87961 32.6402 6.47961 32.8802 6.23961L35.8402 3.27961C36.0802 3.03961 36.4802 3.03961 36.7202 3.27961C36.9602 3.51961 36.9602 3.91961 36.7202 4.15961L33.7602 7.11961C33.6002 7.27961 33.4402 7.27961 33.2802 7.27961Z" fill="#1553C9"/>
<path d="M3.75969 36.8001C3.59969 36.8001 3.43969 36.7201 3.35969 36.6401C3.11969 36.4001 3.11969 36.0001 3.35969 35.7601L6.31969 32.8001C6.55969 32.5601 6.95969 32.5601 7.19969 32.8001C7.43969 33.0401 7.43969 33.4401 7.19969 33.6801L4.23969 36.6401C4.07969 36.8001 3.91969 36.8001 3.75969 36.8001Z" fill="#1553C9"/>
<path d="M36.2402 36.8001C36.0802 36.8001 35.9202 36.7201 35.8402 36.6401L32.8802 33.6801C32.6402 33.4401 32.6402 33.0401 32.8802 32.8001C33.1202 32.5601 33.5202 32.5601 33.7602 32.8001L36.7202 35.7601C36.9602 36.0001 36.9602 36.4001 36.7202 36.6401C36.5602 36.8001 36.4002 36.8001 36.2402 36.8001Z" fill="#1553C9"/>
<path d="M33.2796 29.4397H6.71959C6.39959 29.4397 6.07959 29.1997 6.07959 28.7997C6.07959 28.3997 6.31959 28.1597 6.71959 28.1597H33.2796C33.5996 28.1597 33.9196 28.3997 33.9196 28.7997C33.9196 29.1997 33.5996 29.4397 33.2796 29.4397Z" fill="black"/>
<path d="M33.2796 25.0403H6.71959C6.39959 25.0403 6.07959 24.8003 6.07959 24.4003C6.07959 24.0003 6.31959 23.7603 6.71959 23.7603H33.2796C33.5996 23.7603 33.9196 24.0003 33.9196 24.4003C33.9196 24.8003 33.5996 25.0403 33.2796 25.0403Z" fill="black"/>
<path d="M33.2796 20.6394H6.71959C6.39959 20.6394 6.07959 20.3994 6.07959 19.9994C6.07959 19.5994 6.31959 19.3594 6.71959 19.3594H33.2796C33.5996 19.3594 33.9196 19.5994 33.9196 19.9994C33.9196 20.3994 33.5996 20.6394 33.2796 20.6394Z" fill="black"/>
<path d="M33.2796 16.24H6.71959C6.39959 16.24 6.07959 16 6.07959 15.6C6.07959 15.2 6.31959 14.96 6.71959 14.96H33.2796C33.5996 14.96 33.9196 15.2 33.9196 15.6C33.9196 16 33.5996 16.24 33.2796 16.24Z" fill="black"/>
<path d="M33.2796 11.6799H6.71959C6.39959 11.6799 6.07959 11.4399 6.07959 11.0399C6.07959 10.6399 6.31959 10.3999 6.71959 10.3999H33.2796C33.5996 10.3999 33.9196 10.6399 33.9196 11.0399C33.9196 11.4399 33.5996 11.6799 33.2796 11.6799Z" fill="black"/>
<path d="M11.12 33.8396C10.8 33.8396 10.48 33.5996 10.48 33.1996V6.71959C10.48 6.39959 10.72 6.07959 11.12 6.07959C11.52 6.07959 11.76 6.31959 11.76 6.71959V33.2796C11.68 33.5996 11.44 33.8396 11.12 33.8396Z" fill="black"/>
<path d="M15.6 33.8396C15.28 33.8396 14.96 33.5996 14.96 33.1996V6.71959C14.96 6.39959 15.2 6.07959 15.6 6.07959C16 6.07959 16.24 6.31959 16.24 6.71959V33.2796C16.24 33.5996 15.92 33.8396 15.6 33.8396Z" fill="black"/>
<path d="M19.9999 33.8396C19.6799 33.8396 19.3599 33.5996 19.3599 33.1996V6.71959C19.3599 6.39959 19.5999 6.07959 19.9999 6.07959C20.3999 6.07959 20.6399 6.31959 20.6399 6.71959V33.2796C20.6399 33.5996 20.3199 33.8396 19.9999 33.8396Z" fill="black"/>
<path d="M24.3998 33.8396C24.0798 33.8396 23.7598 33.5996 23.7598 33.1996V6.71959C23.7598 6.39959 23.9998 6.07959 24.3998 6.07959C24.7998 6.07959 25.0398 6.31959 25.0398 6.71959V33.2796C25.0398 33.5996 24.7198 33.8396 24.3998 33.8396Z" fill="black"/>
<path d="M28.8797 33.8396C28.5597 33.8396 28.2397 33.5996 28.2397 33.1996V6.71959C28.2397 6.39959 28.4797 6.07959 28.8797 6.07959C29.2797 6.07959 29.5197 6.31959 29.5197 6.71959V33.2796C29.4397 33.5996 29.1997 33.8396 28.8797 33.8396Z" fill="black"/>
<path d="M6.71969 7.27961C6.55969 7.27961 6.39969 7.27961 6.31969 7.11961L3.35969 4.15961C3.11969 3.91961 3.11969 3.51961 3.35969 3.27961C3.59969 3.03961 3.99969 3.03961 4.23969 3.27961L7.19969 6.23961C7.43969 6.47961 7.43969 6.87961 7.19969 7.11961C7.03969 7.27961 6.87969 7.27961 6.71969 7.27961Z" fill="#1553C9"/>
</g>
<defs>
<clipPath id="clip0_4_389">
<rect width="40" height="40" fill="white"/>
</clipPath>
</defs>
</svg>
