<svg width="40" height="40" viewBox="0 0 40 40" fill="none" xmlns="http://www.w3.org/2000/svg">
<g clip-path="url(#clip0_4_485)">
<path d="M2.83635 31.9438C2.14374 32.6364 2.14374 33.7634 2.83635 34.456C3.18266 34.8023 3.63758 34.9754 4.09242 34.9754C4.54733 34.9754 5.00225 34.8023 5.34856 34.456C6.04109 33.7634 6.04109 32.6364 5.34856 31.9438C4.65602 31.2512 3.52904 31.2512 2.83635 31.9438ZM4.51975 33.6273C4.40559 33.7413 4.25385 33.8042 4.09242 33.8042C3.93098 33.8042 3.77924 33.7413 3.66508 33.6273C3.55092 33.5131 3.48802 33.3613 3.48802 33.1999C3.48802 33.0385 3.55092 32.8867 3.66508 32.7726C3.77924 32.6585 3.93098 32.5956 4.09242 32.5956C4.25385 32.5956 4.40559 32.6585 4.51967 32.7726C4.75541 33.0082 4.75541 33.3916 4.51975 33.6273Z" fill="#1553C9"/>
<path d="M37.9378 17.7777C37.1361 16.4965 36.3101 15.6697 35.8811 15.2846C36.2294 13.4899 35.4223 11.9288 33.4777 10.6397C31.7926 9.52272 29.481 8.73697 27.4415 8.04373C26.837 7.83823 26.2647 7.64351 25.7352 7.44981C21.5982 4.07629 17.7277 2.79742 17.5377 2.736C17.2516 2.64356 16.9419 2.78273 16.8209 3.05808C14.622 8.06593 12.0747 11.6429 11.2027 12.8006C10.4804 12.491 9.61019 12.63 9.02135 13.2187C8.53736 13.7028 8.3571 14.3771 8.48025 15.0031C7.93508 15.4749 7.41601 15.9782 6.93414 16.5042C6.71543 16.7428 6.7316 17.1135 6.97024 17.3321C7.08268 17.4352 7.22457 17.4861 7.366 17.4861C7.52454 17.4861 7.68262 17.4221 7.79818 17.296C8.19379 16.8643 8.61613 16.4485 9.05839 16.0546L21.2368 28.233C20.5935 28.9544 19.8892 29.626 19.1352 30.2331C18.1953 30.9889 16.8585 30.9439 15.9573 30.1268C15.6692 29.8645 15.3811 29.6012 15.0957 29.3376C14.4974 28.7841 13.6905 28.5345 12.882 28.6528C12.0747 28.7708 11.3745 29.24 10.9606 29.94C9.88649 31.7574 8.51455 33.6484 7.62433 34.5387C5.8563 36.3075 3.32472 36.6536 1.98115 35.3107C0.63835 33.9673 0.984655 31.4356 2.75299 29.6672C3.64141 28.7789 5.53274 27.4073 7.35272 26.3316C8.05244 25.9175 8.52142 25.2172 8.63933 24.4104C8.75748 23.6022 8.50806 22.7954 7.95508 22.197C7.69035 21.9105 7.42718 21.6224 7.16566 21.3353C6.59314 20.7038 6.38537 19.8064 6.62354 18.9932C6.71449 18.6826 6.53642 18.357 6.22582 18.2661C5.91522 18.1752 5.5897 18.3532 5.49875 18.6638C5.14681 19.8657 5.45288 21.1911 6.29833 22.1235C6.56259 22.4136 6.82763 22.7038 7.09432 22.9925C7.40593 23.3296 7.54634 23.7846 7.47969 24.2408C7.4132 24.6957 7.14933 25.0901 6.75614 25.3228C4.83129 26.4605 2.88957 27.8733 1.92434 28.8384C-0.300943 31.0637 -0.64725 34.3389 1.1525 36.1395C1.92848 36.9151 2.97779 37.2921 4.0993 37.2921C5.58048 37.292 7.18715 36.634 8.45329 35.3674C9.42024 34.4004 10.8334 32.4589 11.9697 30.5364C12.2023 30.1429 12.5967 29.879 13.0516 29.8124C13.5078 29.7457 13.9628 29.8862 14.3002 30.1983C14.588 30.4641 14.8781 30.7291 15.1691 30.9943C16.5011 32.2019 18.478 32.2658 19.87 31.1463C20.7437 30.4429 21.5553 29.659 22.2883 28.813C22.414 28.8377 22.543 28.8505 22.674 28.8505C23.2027 28.8505 23.6997 28.6446 24.0735 28.2708C24.4473 27.897 24.6532 27.4 24.6532 26.8713C24.6532 26.5978 24.5976 26.3328 24.4926 26.0888C25.6016 25.2536 28.9253 22.8854 33.5974 20.7564C33.6179 20.9333 33.6304 21.152 33.6228 21.4146C33.6003 22.1925 33.3933 23.515 32.5341 25.3981C32.3997 25.6926 32.5295 26.0402 32.824 26.1746C32.9028 26.2105 32.9855 26.2276 33.0669 26.2276C33.2893 26.2276 33.502 26.1003 33.6004 25.8847C35.3691 22.008 34.7094 20.0916 34.5454 19.7214C34.3791 19.2218 32.6081 14.1407 27.9519 9.45701C29.6817 10.0543 31.5016 10.736 32.8301 11.6167C34.4825 12.7121 35.0652 13.8962 34.6639 15.3434C34.5999 15.5738 34.6835 15.8207 34.8734 15.9661C34.8841 15.9743 35.9568 16.8056 36.9722 18.4443C38.3275 20.6316 38.946 23.1459 38.8103 25.9176C38.6229 29.7505 36.7272 30.9265 35.9209 31.2542C34.9029 31.6679 33.8004 31.5212 33.1121 30.8802C32.4097 30.2259 32.2442 29.1861 32.6462 27.9524C32.7464 27.6446 32.5783 27.3139 32.2706 27.2136C31.9627 27.1133 31.6321 27.2815 31.5318 27.5892C30.9883 29.257 31.2732 30.7691 32.3133 31.7378C32.9617 32.3417 33.8394 32.6574 34.7626 32.6573C35.2924 32.6573 35.8374 32.5533 36.3622 32.3399C37.3769 31.9275 39.7606 30.4818 39.9811 25.9748C40.166 22.1939 38.972 19.4303 37.9378 17.7777ZM23.2447 27.4421C23.0923 27.5946 22.8897 27.6785 22.6741 27.6785C22.4585 27.6785 22.2558 27.5946 22.1034 27.4421L9.85023 15.189C9.53557 14.8743 9.53557 14.3623 9.85023 14.0476C10.0076 13.8902 10.2143 13.8116 10.421 13.8116C10.6276 13.8116 10.8343 13.8903 10.9917 14.0476L23.2448 26.3008C23.3973 26.4533 23.4812 26.6559 23.4812 26.8715C23.4812 27.0871 23.3973 27.2897 23.2447 27.4421ZM23.7673 25.1657L22.4417 23.8401C23.0507 23.336 24.213 22.4013 25.7813 21.2656C26.0434 21.0757 26.102 20.7093 25.9121 20.4472C25.7223 20.1851 25.356 20.1265 25.0938 20.3163C23.4104 21.5355 22.2041 22.5115 21.6089 23.0074L19.7049 21.1033C20.1403 20.6939 20.8839 20.0006 21.8536 19.1179C22.0929 18.8999 22.1103 18.5293 21.8925 18.29C21.6747 18.0507 21.304 18.0333 21.0646 18.2511C20.0708 19.1558 19.3117 19.8642 18.8758 20.2742L17.0176 18.416C17.4276 17.9802 18.136 17.221 19.0407 16.2272C19.2586 15.9879 19.2411 15.6172 19.0018 15.3994C18.7625 15.1815 18.3919 15.1989 18.1739 15.4383C17.2913 16.408 16.5979 17.1515 16.1884 17.587L14.2845 15.6829C14.7803 15.0878 15.7563 13.8816 16.9755 12.1982C17.1654 11.936 17.1068 11.5696 16.8446 11.3797C16.5825 11.1899 16.2162 11.2486 16.0262 11.5106C14.8905 13.0788 13.9558 14.2412 13.4517 14.8502L12.1266 13.5251C12.9979 12.3773 15.4465 8.95677 17.6699 4.03262C19.0789 4.58161 23.2636 6.42566 27.0651 10.2272C30.8669 14.0291 32.711 18.2139 33.2598 19.6224C28.3357 21.8458 24.915 24.2945 23.7673 25.1657Z" fill="black"/>
</g>
<defs>
<clipPath id="clip0_4_485">
<rect width="40" height="40" fill="white"/>
</clipPath>
</defs>
</svg>
