<svg width="40" height="40" viewBox="0 0 40 40" fill="none" xmlns="http://www.w3.org/2000/svg">
<g clip-path="url(#clip0_4_372)">
<path d="M21.25 35.625H21.12L18.7338 25.4819C18.7128 25.3926 18.6724 25.309 18.6154 25.237C18.5585 25.1651 18.4865 25.1066 18.4044 25.0656L12.5 22.1138V16.875H18.125C18.4876 16.8744 18.8422 16.7687 19.1459 16.5707C19.4496 16.3727 19.6894 16.0909 19.8363 15.7594L31.25 18.6131V19.4881C30.8854 19.617 30.5695 19.8555 30.3458 20.171C30.122 20.4864 30.0012 20.8633 30 21.25V22.5C30 22.6658 30.0658 22.8247 30.1831 22.9419C30.3003 23.0592 30.4592 23.125 30.625 23.125H33.125C33.2908 23.125 33.4497 23.0592 33.5669 22.9419C33.6842 22.8247 33.75 22.6658 33.75 22.5V21.25C33.7484 20.8636 33.6274 20.4871 33.4037 20.1721C33.1799 19.857 32.8643 19.6188 32.5 19.49V18.125C32.5 17.9856 32.4533 17.8502 32.3675 17.7403C32.2816 17.6305 32.1615 17.5525 32.0263 17.5188L19.9212 14.4925C19.8116 14.1001 19.5768 13.7542 19.2526 13.5074C18.9284 13.2605 18.5325 13.1263 18.125 13.125H13.9831L12.5 12.375V10.625C12.5 9.96196 12.2366 9.32607 11.7678 8.85723C11.2989 8.38839 10.663 8.125 10 8.125H6.875C6.43012 8.12718 5.9941 8.24962 5.61312 8.47938L4.81687 7.68313C4.69969 7.56591 4.54075 7.50004 4.375 7.5H1.25C1.08424 7.5 0.925268 7.56585 0.808058 7.68306C0.690848 7.80027 0.625 7.95924 0.625 8.125V20.625C0.625 20.7908 0.690848 20.9497 0.808058 21.0669C0.925268 21.1842 1.08424 21.25 1.25 21.25H4.41625C4.60083 23.0769 5.48123 24.7627 6.875 25.9581V38.75C6.875 38.9158 6.94085 39.0747 7.05806 39.1919C7.17527 39.3092 7.33424 39.375 7.5 39.375H11.25C11.7401 39.378 12.2118 39.1886 12.5637 38.8475C12.9156 38.5064 13.1197 38.0409 13.1321 37.551C13.1444 37.061 12.9641 36.5858 12.6298 36.2274C12.2955 35.869 11.834 35.6561 11.3444 35.6344L12.4175 28.125L14.5062 28.6475L16.875 36.3444V38.75C16.875 38.9158 16.9408 39.0747 17.0581 39.1919C17.1753 39.3092 17.3342 39.375 17.5 39.375H21.25C21.7473 39.375 22.2242 39.1775 22.5758 38.8258C22.9275 38.4742 23.125 37.9973 23.125 37.5C23.125 37.0027 22.9275 36.5258 22.5758 36.1742C22.2242 35.8225 21.7473 35.625 21.25 35.625ZM32.5 21.875H31.25V21.25C31.25 21.0842 31.3158 20.9253 31.4331 20.8081C31.5503 20.6908 31.7092 20.625 31.875 20.625C32.0408 20.625 32.1997 20.6908 32.3169 20.8081C32.4342 20.9253 32.5 21.0842 32.5 21.25V21.875ZM13.8338 14.375H18.125C18.2908 14.375 18.4497 14.4408 18.5669 14.5581C18.6842 14.6753 18.75 14.8342 18.75 15C18.75 15.1658 18.6842 15.3247 18.5669 15.4419C18.4497 15.5592 18.2908 15.625 18.125 15.625H12.1544L9.15438 13.8831C8.97602 13.7774 8.84426 13.6082 8.7856 13.4093C8.72693 13.2105 8.7457 12.9968 8.83813 12.8112C8.88396 12.7163 8.94833 12.6315 9.02744 12.5619C9.10654 12.4922 9.19879 12.4391 9.29875 12.4056C9.39572 12.3728 9.49828 12.3598 9.60036 12.3673C9.70245 12.3749 9.802 12.4028 9.89313 12.4494L13.5538 14.3075C13.6406 14.3515 13.7364 14.3746 13.8338 14.375ZM10 9.375C10.3315 9.375 10.6495 9.5067 10.8839 9.74112C11.1183 9.97554 11.25 10.2935 11.25 10.625V11.7381L10.4556 11.335C10.2173 11.2129 9.95689 11.1397 9.68982 11.1199C9.42275 11.1 9.15441 11.1339 8.90063 11.2194C8.64336 11.3046 8.40575 11.4405 8.20181 11.619C7.99787 11.7975 7.83171 12.015 7.71312 12.2587C7.48159 12.7289 7.43668 13.2694 7.58741 13.7713C7.73815 14.2733 8.07336 14.6995 8.52562 14.9644L11.25 16.5456V18.75H5.625V10.625C5.625 10.2935 5.7567 9.97554 5.99112 9.74112C6.22554 9.5067 6.54348 9.375 6.875 9.375H10ZM1.875 8.75H4.11625L4.72937 9.36312C4.49962 9.7441 4.37718 10.1801 4.375 10.625V20H1.875V8.75ZM11.875 37.5C11.875 37.6658 11.8092 37.8247 11.6919 37.9419C11.5747 38.0592 11.4158 38.125 11.25 38.125H8.125V36.875H11.25C11.4158 36.875 11.5747 36.9408 11.6919 37.0581C11.8092 37.1753 11.875 37.3342 11.875 37.5ZM10.0831 35.625H8.125V26.8125C8.65369 27.1011 9.21668 27.3218 9.80062 27.4694L11.1981 27.8187L10.0831 35.625ZM15.1513 27.5187L10.1031 26.2569C8.8241 25.9367 7.68874 25.1983 6.87739 24.159C6.06605 23.1197 5.62524 21.8391 5.625 20.5206V20H11.25V21.4888L10.9044 21.3156L10.3456 22.4344L17.5837 26.0531L19.8356 35.625H17.9606L15.5975 27.9412C15.5658 27.8384 15.5081 27.7454 15.4299 27.6714C15.3517 27.5973 15.2557 27.5448 15.1513 27.5187ZM21.25 38.125H18.125V36.875H21.25C21.4158 36.875 21.5747 36.9408 21.6919 37.0581C21.8092 37.1753 21.875 37.3342 21.875 37.5C21.875 37.6658 21.8092 37.8247 21.6919 37.9419C21.5747 38.0592 21.4158 38.125 21.25 38.125Z" fill="black"/>
<path d="M11.875 4.375C11.875 3.63332 11.6551 2.9083 11.243 2.29161C10.831 1.67493 10.2453 1.19428 9.56006 0.910453C8.87484 0.626625 8.12084 0.552362 7.39341 0.697057C6.66598 0.841751 5.9978 1.1989 5.47335 1.72335C4.9489 2.2478 4.59175 2.91598 4.44706 3.64341C4.30236 4.37084 4.37662 5.12484 4.66045 5.81006C4.94428 6.49529 5.42493 7.08096 6.04161 7.49301C6.6583 7.90507 7.38332 8.125 8.125 8.125C9.11925 8.12401 10.0725 7.7286 10.7755 7.02556C11.4786 6.32251 11.874 5.36926 11.875 4.375ZM8.125 6.875C7.63055 6.875 7.1472 6.72838 6.73607 6.45368C6.32495 6.17897 6.00452 5.78853 5.8153 5.33171C5.62608 4.8749 5.57657 4.37223 5.67304 3.88728C5.7695 3.40232 6.0076 2.95687 6.35723 2.60723C6.70686 2.2576 7.15232 2.0195 7.63727 1.92304C8.12223 1.82658 8.62489 1.87608 9.08171 2.0653C9.53852 2.25452 9.92897 2.57495 10.2037 2.98608C10.4784 3.3972 10.625 3.88055 10.625 4.375C10.625 5.03804 10.3616 5.67393 9.89276 6.14277C9.42392 6.61161 8.78804 6.875 8.125 6.875Z" fill="black"/>
<path d="M32.5 24.375H31.25V25.625H32.5V24.375Z" fill="black"/>
<path d="M32.5 26.875H31.25V28.125H32.5V26.875Z" fill="black"/>
<path d="M32.5 29.375H31.25V30.625H32.5V29.375Z" fill="black"/>
<path d="M28.9334 23.9333L27.6836 25.1831L28.5675 26.067L29.8173 24.8172L28.9334 23.9333Z" fill="black"/>
<path d="M27.0584 25.8083L25.8086 27.0581L26.6925 27.942L27.9423 26.6922L27.0584 25.8083Z" fill="black"/>
<path d="M25.1834 27.6833L23.9336 28.9331L24.8175 29.817L26.0673 28.5672L25.1834 27.6833Z" fill="black"/>
<path d="M34.192 23.9335L33.3081 24.8174L34.5579 26.0672L35.4418 25.1833L34.192 23.9335Z" fill="black"/>
<path d="M36.067 25.8085L35.1831 26.6924L36.4329 27.9422L37.3168 27.0583L36.067 25.8085Z" fill="black"/>
<path d="M37.9425 27.6835L37.0586 28.5674L38.3084 29.8172L39.1923 28.9333L37.9425 27.6835Z" fill="black"/>
<path d="M29.8338 33.9069L30.2794 33.6844C30.4006 33.6239 30.4989 33.5256 30.5594 33.4044L31.1844 32.1544L30.0656 31.5956L29.5344 32.6581L29.2675 32.7912C29.1661 32.6659 29.0538 32.5498 28.9319 32.4444C29.2159 32.111 29.3729 31.6879 29.375 31.25C29.375 30.7527 29.1775 30.2758 28.8258 29.9242C28.4742 29.5725 27.9973 29.375 27.5 29.375C27.0027 29.375 26.5258 29.5725 26.1742 29.9242C25.8225 30.2758 25.625 30.7527 25.625 31.25C25.6268 31.6884 25.7838 32.1119 26.0681 32.4456C25.9462 32.5511 25.8339 32.6671 25.7325 32.7925L25.4656 32.6594L24.9344 31.5969L23.8156 32.1556L24.4406 33.4056C24.5011 33.5268 24.5994 33.6251 24.7206 33.6856L25.1662 33.9081C25.0579 34.262 25.0019 34.6299 25 35H23.75V36.25H25.2119C25.2577 36.3748 25.3107 36.4969 25.3706 36.6156L24.7206 36.9406C24.5994 37.0011 24.5011 37.0994 24.4406 37.2206L23.8156 38.4706L24.9344 39.0294L25.4656 37.9669L26.1531 37.6244C26.5278 37.9483 27.0066 38.1265 27.5019 38.1265C27.9972 38.1265 28.4759 37.9483 28.8506 37.6244L29.5381 37.9669L30.0694 39.0294L31.1881 38.4706L30.5631 37.2206C30.5026 37.0994 30.4043 37.0011 30.2831 36.9406L29.6331 36.6156C29.6918 36.4968 29.7436 36.3748 29.7881 36.25H31.25V35H30C29.9982 34.6295 29.9422 34.2612 29.8338 33.9069ZM27.5 30.625C27.6236 30.625 27.7444 30.6617 27.8472 30.7303C27.95 30.799 28.0301 30.8966 28.0774 31.0108C28.1247 31.125 28.1371 31.2507 28.113 31.3719C28.0889 31.4932 28.0293 31.6045 27.9419 31.6919C27.8545 31.7793 27.7432 31.8389 27.6219 31.863C27.5007 31.8871 27.375 31.8747 27.2608 31.8274C27.1466 31.7801 27.049 31.7 26.9803 31.5972C26.9117 31.4944 26.875 31.3736 26.875 31.25C26.875 31.0842 26.9408 30.9253 27.0581 30.8081C27.1753 30.6908 27.3342 30.625 27.5 30.625ZM27.5 36.875C26.8225 36.875 26.25 36.0162 26.25 35C26.25 33.9837 26.8225 33.125 27.5 33.125C28.1775 33.125 28.75 33.9837 28.75 35C28.75 36.0162 28.1775 36.875 27.5 36.875Z" fill="#1553C9"/>
<path d="M39.375 36.25V35H38.125C38.1232 34.6295 38.0672 34.2612 37.9588 33.9069L38.4044 33.6844C38.5256 33.6239 38.6239 33.5256 38.6844 33.4044L39.3094 32.1544L38.1906 31.5956L37.6594 32.6581L37.3925 32.7912C37.2911 32.6659 37.1788 32.5498 37.0569 32.4444C37.3409 32.111 37.4979 31.6879 37.5 31.25C37.5 30.7527 37.3025 30.2758 36.9508 29.9242C36.5992 29.5725 36.1223 29.375 35.625 29.375C35.1277 29.375 34.6508 29.5725 34.2992 29.9242C33.9475 30.2758 33.75 30.7527 33.75 31.25C33.7518 31.6884 33.9088 32.1119 34.1931 32.4456C34.0712 32.5511 33.9589 32.6671 33.8575 32.7925L33.5906 32.6594L33.0594 31.5969L31.9406 32.1556L32.5656 33.4056C32.6261 33.5268 32.7244 33.6251 32.8456 33.6856L33.2912 33.9081C33.1829 34.262 33.1269 34.6299 33.125 35H31.875V36.25H33.3369C33.3827 36.3748 33.4357 36.4969 33.4956 36.6156L32.8456 36.9406C32.7244 37.0011 32.6261 37.0994 32.5656 37.2206L31.9406 38.4706L33.0594 39.0294L33.5906 37.9669L34.2781 37.6244C34.6528 37.9483 35.1316 38.1265 35.6269 38.1265C36.1222 38.1265 36.6009 37.9483 36.9756 37.6244L37.6631 37.9669L38.1944 39.0294L39.3131 38.4706L38.6881 37.2206C38.6276 37.0994 38.5293 37.0011 38.4081 36.9406L37.7581 36.6156C37.8168 36.4968 37.8686 36.3748 37.9131 36.25H39.375ZM35.625 30.625C35.7486 30.625 35.8694 30.6617 35.9722 30.7303C36.075 30.799 36.1551 30.8966 36.2024 31.0108C36.2497 31.125 36.2621 31.2507 36.238 31.3719C36.2139 31.4932 36.1543 31.6045 36.0669 31.6919C35.9795 31.7793 35.8682 31.8389 35.7469 31.863C35.6257 31.8871 35.5 31.8747 35.3858 31.8274C35.2716 31.7801 35.174 31.7 35.1053 31.5972C35.0367 31.4944 35 31.3736 35 31.25C35 31.0842 35.0658 30.9253 35.1831 30.8081C35.3003 30.6908 35.4592 30.625 35.625 30.625ZM35.625 36.875C34.9475 36.875 34.375 36.0162 34.375 35C34.375 33.9837 34.9475 33.125 35.625 33.125C36.3025 33.125 36.875 33.9837 36.875 35C36.875 36.0162 36.3025 36.875 35.625 36.875Z" fill="#1553C9"/>
</g>
<defs>
<clipPath id="clip0_4_372">
<rect width="40" height="40" fill="white"/>
</clipPath>
</defs>
</svg>
