<svg width="40" height="40" viewBox="0 0 40 40" fill="none" xmlns="http://www.w3.org/2000/svg">
<path d="M5.65409 33.9727L4.20097 35.4259C3.94282 35.6847 3.79785 36.0353 3.79785 36.4008C3.79785 36.7663 3.94282 37.1169 4.20097 37.3757C4.45977 37.6339 4.81039 37.7788 5.17593 37.7788C5.54147 37.7788 5.89209 37.6339 6.15089 37.3757L7.60402 35.9226C7.86259 35.664 8.00786 35.3133 8.00787 34.9477C8.00788 34.582 7.86262 34.2313 7.60406 33.9727C7.34549 33.7141 6.9948 33.5689 6.62912 33.5688C6.26345 33.5688 5.91275 33.7141 5.65417 33.9727L5.65409 33.9727ZM6.94105 35.2598L5.48792 36.7129C5.44709 36.7545 5.39841 36.7877 5.3447 36.8104C5.29098 36.8331 5.2333 36.845 5.17497 36.8453C5.11665 36.8456 5.05885 36.8343 5.0049 36.8121C4.95096 36.7899 4.90195 36.7573 4.86071 36.716C4.81947 36.6748 4.78681 36.6258 4.76462 36.5719C4.74243 36.5179 4.73115 36.4601 4.73143 36.4018C4.73172 36.3435 4.74356 36.2858 4.76628 36.2321C4.789 36.1784 4.82213 36.1297 4.86378 36.0888L6.31691 34.6357C6.35788 34.5947 6.40653 34.5622 6.46007 34.5401C6.51361 34.5179 6.57099 34.5065 6.62894 34.5065C6.68689 34.5065 6.74427 34.5179 6.79781 34.5401C6.85135 34.5622 6.89999 34.5947 6.94097 34.6357C6.98195 34.6767 7.01445 34.7253 7.03663 34.7789C7.0588 34.8324 7.07022 34.8898 7.07022 34.9477C7.07022 35.0057 7.0588 35.0631 7.03663 35.1166C7.01445 35.1701 6.98195 35.2188 6.94097 35.2598H6.94105Z" fill="#1553C9"/>
<path d="M36.1873 2.24559C35.6867 1.74496 35.0924 1.34784 34.4384 1.0769C33.7843 0.805956 33.0833 0.666504 32.3753 0.666504C31.6674 0.666504 30.9663 0.805956 30.3123 1.0769C29.6582 1.34784 29.0639 1.74496 28.5634 2.24559L25.4517 5.35731L25.261 5.1666C24.9765 4.88207 24.6387 4.65637 24.2669 4.50238C23.8952 4.34839 23.4967 4.26913 23.0943 4.26913C22.2817 4.26913 21.5023 4.59196 20.9277 5.1666C20.353 5.74124 20.0302 6.52062 20.0302 7.33328C20.0302 8.14595 20.353 8.92532 20.9277 9.49996L21.1183 9.69067L20.6908 10.1182L20.1323 9.55973C20.0444 9.47185 19.9252 9.42249 19.8009 9.42249C19.6766 9.42249 19.5574 9.47185 19.4695 9.55973L17.7195 11.3097C17.6316 11.3976 17.5822 11.5169 17.5822 11.6412C17.5822 11.7655 17.6316 11.8847 17.7195 11.9726L18.278 12.5311L9.03883 21.7704C8.99529 21.8139 8.96076 21.8656 8.93719 21.9224C8.91363 21.9793 8.90151 22.0403 8.90151 22.1018C8.90151 22.1634 8.91363 22.2244 8.93719 22.2812C8.96076 22.3381 8.99529 22.3898 9.03883 22.4333L10.4744 23.8689C10.5179 23.9124 10.5696 23.9469 10.6265 23.9705C10.6833 23.9941 10.7443 24.0062 10.8059 24.0062C10.8674 24.0062 10.9284 23.9941 10.9853 23.9705C11.0421 23.9469 11.0938 23.9124 11.1373 23.8689L18.1905 16.8157L18.6742 18.8727L3.06617 34.4804C2.54672 35.0164 2.25886 35.7352 2.26474 36.4817C2.27061 37.2281 2.56974 37.9423 3.09756 38.4701C3.62539 38.998 4.33959 39.2971 5.08602 39.303C5.83246 39.3088 6.55128 39.021 7.08734 38.5015L31.4836 14.1054C31.5716 14.1531 31.6727 14.1711 31.7717 14.1564C31.8707 14.1417 31.9623 14.0953 32.0327 14.0241L34.3801 11.6767C34.468 11.5888 34.5174 11.4696 34.5174 11.3452C34.5174 11.2209 34.468 11.1017 34.3801 11.0138L30.8945 7.52824C30.8066 7.44037 30.6874 7.391 30.5631 7.391C30.4388 7.391 30.3196 7.44037 30.2317 7.52824L28.927 8.83293L28.7718 8.67778L30.7878 6.66215L30.9063 6.54356C31.0072 6.44292 31.1438 6.3864 31.2863 6.3864C31.4287 6.3864 31.5653 6.44292 31.6662 6.54356L35.2584 10.1358C35.3463 10.2237 35.4655 10.2731 35.5898 10.2731C35.7141 10.2731 35.8333 10.2237 35.9212 10.1358L36.1869 9.8702C36.6875 9.36962 37.0847 8.77533 37.3556 8.12125C37.6266 7.46718 37.766 6.76614 37.766 6.05817C37.766 5.35019 37.6266 4.64915 37.3556 3.99508C37.0847 3.341 36.6879 2.74616 36.1873 2.24559ZM19.8008 10.5541L22.3531 13.1065L21.2662 14.1935L18.7138 11.6411L19.8008 10.5541ZM23.3477 12.775L22.7893 12.2167L23.2168 11.7892L24.4872 13.0596L21.6543 15.8925L21.0111 15.2493C21.1011 15.3079 21.2085 15.3338 21.3153 15.3226C21.4221 15.3114 21.5218 15.2638 21.5977 15.1879L23.3477 13.4379C23.4356 13.3499 23.4849 13.2307 23.4849 13.1064C23.4848 12.9821 23.4356 12.8629 23.3477 12.775ZM21.3537 10.7811L21.7812 10.3536L22.5538 11.1262L22.1263 11.5537L21.3537 10.7811ZM10.8055 22.8748L10.033 22.1021L10.781 21.3537L11.7961 21.8839L10.8055 22.8748ZM12.4909 21.1895L11.4759 20.6593L12.3574 19.7777L13.3724 20.3079L12.4909 21.1895ZM14.0673 19.6132L13.0522 19.0829L13.9337 18.2014L14.9488 18.7317L14.0673 19.6132ZM15.6435 18.0369L14.6285 17.5066L15.51 16.6251L16.5251 17.1554L15.6435 18.0369ZM17.2199 16.4605L16.2047 15.9302L17.0862 15.0487L18.1013 15.5786L17.2199 16.4605ZM17.781 14.3536L18.9408 13.1939L19.7134 13.9665L18.7961 14.8839L17.781 14.3536ZM30.5631 8.52262L33.3858 11.3452L31.7012 13.0297L28.8786 10.2072L30.5631 8.52262ZM30.8045 13.4587L6.42445 37.8386C6.06466 38.1844 5.58362 38.3753 5.08464 38.3704C4.58565 38.3654 4.10851 38.165 3.75565 37.8121C3.4028 37.4593 3.20238 36.9821 3.19742 36.4831C3.19246 35.9841 3.38337 35.5031 3.72914 35.1433L19.5212 19.3511C19.5777 19.2946 19.6189 19.2247 19.6407 19.1479C19.6626 19.0711 19.6645 18.99 19.6462 18.9123L18.9699 16.0359L19.7209 15.285L21.3225 16.8865C21.4104 16.9744 21.5296 17.0238 21.6539 17.0238C21.7782 17.0238 21.8974 16.9744 21.9853 16.8865L25.4813 13.3911C25.5692 13.3032 25.6186 13.184 25.6186 13.0597C25.6186 12.9354 25.5692 12.8162 25.4813 12.7282L21.5903 8.83723C21.3928 8.63973 21.2362 8.40527 21.1293 8.14723C21.0224 7.88919 20.9674 7.61262 20.9674 7.33332C20.9674 6.76925 21.1915 6.22828 21.5903 5.82942C21.9892 5.43055 22.5301 5.20648 23.0942 5.20648C23.6583 5.20648 24.1993 5.43055 24.5981 5.82942L28.2645 9.49567L27.8845 9.87559C27.7966 9.9635 27.7472 10.0827 27.7472 10.207C27.7472 10.3313 27.7966 10.4506 27.8845 10.5385L30.8045 13.4587ZM35.5892 9.14043L32.3291 5.88028C32.1989 5.75036 32.0454 5.64614 31.8766 5.57309L32.3291 5.12051C32.379 5.07062 32.4382 5.03104 32.5034 5.00404C32.5686 4.97703 32.6385 4.96314 32.709 4.96314C32.7796 4.96314 32.8494 4.97703 32.9146 5.00404C32.9798 5.03104 33.039 5.07062 33.0889 5.12051L36.2407 8.27223C36.0596 8.58701 35.8408 8.87856 35.5892 9.14043ZM33.7518 4.4577C33.6149 4.32074 33.4523 4.21209 33.2734 4.13797C33.0945 4.06385 32.9027 4.02569 32.709 4.02569C32.5154 4.02569 32.3236 4.06385 32.1447 4.13797C31.9657 4.21209 31.8032 4.32074 31.6662 4.4577L28.1091 8.01481L26.1145 6.0202L29.2263 2.90856C29.9285 2.20779 30.8445 1.76142 31.8292 1.64018C32.8138 1.51894 33.8107 1.72977 34.6619 2.23926C35.5132 2.74874 36.17 3.52774 36.5284 4.4528C36.8868 5.37786 36.9262 6.39606 36.6404 7.34606L33.7518 4.4577Z" fill="black"/>
</svg>
